<!DOCTYPE svg PUBLIC "-//W3C//DTD SVG 1.1//EN" "http://www.w3.org/Graphics/SVG/1.1/DTD/svg11.dtd">
<!-- Uploaded to: SVG Repo, www.svgrepo.com, Transformed by: SVG Repo Mixer Tools -->
<svg fill="#000000" version="1.1" id="Layer_1" xmlns="http://www.w3.org/2000/svg" xmlns:xlink="http://www.w3.org/1999/xlink" viewBox="-102.4 -102.4 716.80 716.80" xml:space="preserve" width="800px" height="800px">
<g id="SVGRepo_bgCarrier" stroke-width="0" transform="translate(0,0), scale(1)">
<rect x="-102.4" y="-102.4" width="716.80" height="716.80" rx="358.4" fill="#9c9c9c" strokewidth="0"/>
</g>
<g id="SVGRepo_tracerCarrier" stroke-linecap="round" stroke-linejoin="round" stroke="#CCCCCC" stroke-width="7.168000000000001"> <g> <g> <path d="M0,60.324v312.001h168.113v31.999c0,17.769-14.105,31.689-32.112,31.689H96.066v15.662h199.933 c26.652,0,47.531-20.799,47.531-47.351v-31.999H512V60.324H0z M295.999,436.014H171.471c7.645-8.398,12.304-19.513,12.304-31.689 v-31.999h25.118c3.87,17.978,19.931,31.642,39.107,31.642c19.176,0,35.236-13.664,39.106-31.642h40.762v31.999h0.001 C327.868,422.095,313.87,436.014,295.999,436.014z M225.452,372.325h45.096c-3.363,9.268-12.201,15.64-22.547,15.64 C237.653,387.967,228.815,381.593,225.452,372.325z M495.998,324.289h-87.731v15.662h87.731v16.373H16.001v-16.373h272.19v-15.662 H16.001V76.326h479.998V324.289z"/> </g> </g> <g> <g> <rect x="303.848" y="324.293" width="15.662" height="15.662"/> </g> </g> <g> <g> <rect x="327.864" y="324.293" width="15.662" height="15.662"/> </g> </g> <g> <g> <rect x="351.879" y="324.293" width="16.706" height="15.662"/> </g> </g> <g> <g> <rect x="375.895" y="324.293" width="15.662" height="15.662"/> </g> </g> <g> <g> <rect x="247.464" y="84.138" width="17.751" height="15.662"/> </g> </g> <g> <g> <rect x="456.294" y="99.801" width="15.662" height="105.459"/> </g> </g> <g> <g> <rect x="456.294" y="220.922" width="15.662" height="31.325"/> </g> </g> <g> <g> <rect x="456.294" y="268.953" width="15.662" height="15.662"/> </g> </g> </g>
<g id="SVGRepo_iconCarrier"> <g> <g> <path d="M0,60.324v312.001h168.113v31.999c0,17.769-14.105,31.689-32.112,31.689H96.066v15.662h199.933 c26.652,0,47.531-20.799,47.531-47.351v-31.999H512V60.324H0z M295.999,436.014H171.471c7.645-8.398,12.304-19.513,12.304-31.689 v-31.999h25.118c3.87,17.978,19.931,31.642,39.107,31.642c19.176,0,35.236-13.664,39.106-31.642h40.762v31.999h0.001 C327.868,422.095,313.87,436.014,295.999,436.014z M225.452,372.325h45.096c-3.363,9.268-12.201,15.64-22.547,15.64 C237.653,387.967,228.815,381.593,225.452,372.325z M495.998,324.289h-87.731v15.662h87.731v16.373H16.001v-16.373h272.19v-15.662 H16.001V76.326h479.998V324.289z"/> </g> </g> <g> <g> <rect x="303.848" y="324.293" width="15.662" height="15.662"/> </g> </g> <g> <g> <rect x="327.864" y="324.293" width="15.662" height="15.662"/> </g> </g> <g> <g> <rect x="351.879" y="324.293" width="16.706" height="15.662"/> </g> </g> <g> <g> <rect x="375.895" y="324.293" width="15.662" height="15.662"/> </g> </g> <g> <g> <rect x="247.464" y="84.138" width="17.751" height="15.662"/> </g> </g> <g> <g> <rect x="456.294" y="99.801" width="15.662" height="105.459"/> </g> </g> <g> <g> <rect x="456.294" y="220.922" width="15.662" height="31.325"/> </g> </g> <g> <g> <rect x="456.294" y="268.953" width="15.662" height="15.662"/> </g> </g> </g>
</svg>