<svg xmlns="http://www.w3.org/2000/svg" viewBox="0 0 2440 300"><path fill="#e5e5e5" fill-opacity="1" d="M0,224L26.7,240C53.3,256,107,288,160,282.7C213.3,277,267,235,320,213.3C373.3,192,427,192,480,192C533.3,192,587,192,640,202.7C693.3,213,747,235,800,240C853.3,245,907,235,960,202.7C1013.3,171,1067,117,1120,101.3C1173.3,85,1227,107,1280,149.3C1333.3,192,1387,256,1413,288L1440,320L1440,0L1413.3,0C1386.7,0,1333,0,1280,0C1226.7,0,1173,0,1120,0C1066.7,0,1013,0,960,0C906.7,0,853,0,800,0C746.7,0,693,0,640,0C586.7,0,533,0,480,0C426.7,0,373,0,320,0C266.7,0,213,0,160,0C106.7,0,53,0,27,0L0,0Z"></path></svg>